<?xml version="1.0" standalone="no"?>
<!DOCTYPE svg PUBLIC "-//W3C//DTD SVG 20010904//EN"
 "http://www.w3.org/TR/2001/REC-SVG-20010904/DTD/svg10.dtd">
<svg version="1.0" xmlns="http://www.w3.org/2000/svg"
 width="300.000000pt" height="300.000000pt" viewBox="0 0 300.000000 300.000000"
 preserveAspectRatio="xMidYMid meet">
<metadata>
Created by potrace 1.10, written by Peter Selinger 2001-2011
</metadata>
<g transform="translate(0.000000,300.000000) scale(0.100000,-0.100000)"
fill="#000000" stroke="none">
<path d="M1335 2843 c-168 -11 -480 -35 -498 -40 -12 -3 -80 -8 -150 -12 -125
-6 -129 -7 -153 -34 -13 -15 -24 -38 -24 -50 0 -12 5 -152 10 -312 23 -678 41
-1280 46 -1555 6 -320 15 -425 37 -447 15 -16 152 -27 462 -38 245 -9 635 -39
605 -48 -42 -12 -147 -8 -335 13 -181 20 -242 24 -234 16 6 -7 177 -32 334
-51 101 -11 144 -12 190 -4 33 6 90 12 127 14 37 2 76 8 87 14 35 19 245 181
290 224 26 25 60 76 86 127 46 92 145 339 145 361 0 8 -11 32 -25 54 -15 24
-25 56 -25 80 0 42 -44 189 -78 265 -21 46 -74 101 -170 180 -61 49 -62 62
-11 136 16 24 48 80 70 126 l41 83 -6 150 c-7 180 -15 214 -67 270 -21 23 -39
47 -39 52 0 5 -13 23 -30 40 -16 16 -38 51 -49 76 -15 34 -36 58 -83 93 -35
26 -79 54 -98 63 -19 9 -64 33 -100 53 -110 62 -265 106 -355 101z m151 -55
c57 -12 103 -23 101 -24 -1 -1 -180 0 -397 4 l-395 7 260 16 c143 9 275 17
294 18 19 0 81 -9 137 -21z m-348 -40 c348 -2 508 -6 497 -13 -10 -5 -155
-101 -324 -212 l-306 -202 -105 102 c-250 242 -340 330 -340 335 0 2 15 2 33
-1 17 -3 263 -7 545 -9z m-184 -407 l39 -40 -81 -378 c-44 -208 -126 -598
-182 -868 -120 -582 -118 -574 -119 -478 -2 116 -60 1969 -65 2071 l-4 93 186
-180 c103 -98 205 -197 226 -220z m691 339 c-8 -24 -45 -140 -81 -259 -36
-119 -67 -217 -69 -219 -3 -3 -456 105 -461 111 -2 1 123 85 276 186 154 101
294 194 312 207 17 13 33 22 35 20 2 -1 -4 -22 -12 -46z m68 -25 c14 -33 91
-195 170 -361 l144 -300 -250 98 c-138 54 -253 100 -255 103 -3 3 29 117 71
254 43 136 77 257 77 267 0 26 13 8 43 -61z m294 -424 c12 -102 21 -187 19
-188 -1 -1 -31 59 -66 135 -35 75 -106 225 -157 332 l-94 195 138 -144 138
-144 22 -186z m-149 376 c36 -28 72 -67 83 -89 11 -22 19 -41 17 -42 -2 -2
-46 42 -98 97 -101 107 -101 112 -2 34z m173 -202 c6 -11 -4 -5 -20 13 -17 18
-31 38 -31 45 0 13 34 -25 51 -58z m85 -207 c7 -57 13 -112 13 -123 0 -18
-107 278 -108 300 -1 5 18 -9 41 -32 40 -41 42 -44 54 -145z m-71 50 c14 -46
40 -125 59 -175 l34 -93 -42 0 -42 0 -18 161 c-9 89 -20 168 -23 175 -3 8 -3
14 1 14 3 0 17 -37 31 -82z m-907 1 l93 -34 -5 -40 c-3 -22 -6 -100 -7 -172
-1 -73 -6 -133 -10 -133 -5 0 -9 4 -9 10 0 8 -60 147 -149 344 -18 38 -26 66
-19 63 7 -2 55 -20 106 -38z m-48 -159 c34 -80 75 -171 91 -202 l29 -56 -51
-11 c-90 -19 -81 -33 -107 177 -13 103 -26 201 -29 217 -9 47 0 30 67 -125z
m-36 -291 c-6 -10 -104 -68 -104 -61 0 9 38 371 47 442 5 49 9 31 33 -160 15
-118 26 -218 24 -221z m319 392 c43 -10 83 -23 88 -28 10 -10 -27 -253 -41
-267 -14 -14 -120 -46 -152 -46 l-28 0 5 73 c3 39 8 120 11 180 7 123 -2 117
117 88z m605 -197 c31 -8 28 -24 -5 -24 -16 -1 -136 -20 -268 -44 -132 -24
-241 -43 -242 -42 -1 1 9 67 22 147 14 79 25 144 25 145 0 0 100 -40 223 -88
122 -49 232 -91 245 -94z m-1028 -90 c-18 -154 -34 -232 -118 -561 -53 -210
-98 -380 -100 -378 -2 1 35 183 82 403 47 221 100 473 118 561 18 88 34 158
35 157 2 -2 -6 -83 -17 -182z m1178 51 c2 -2 -27 -58 -63 -126 -37 -68 -64
-113 -61 -99 3 14 15 73 27 132 l21 106 37 -5 c20 -3 37 -7 39 -8z m-145 -43
c-21 -26 -138 -172 -260 -325 -123 -152 -223 -274 -223 -270 0 5 -9 127 -20
272 -11 145 -17 268 -14 272 3 5 17 9 32 10 15 0 131 20 257 43 127 24 238 44
248 45 15 1 11 -9 -20 -47z m-47 -152 l-64 -132 -141 -124 c-78 -68 -143 -124
-146 -124 -2 0 89 116 203 259 114 142 208 257 210 256 1 -1 -27 -62 -62 -135z
m60 11 c-13 -62 -26 -114 -28 -115 -11 -9 -69 -24 -66 -17 17 43 112 250 115
248 1 -2 -8 -54 -21 -116z m-536 -186 c11 -148 18 -271 16 -273 -2 -2 -40 25
-83 60 -44 35 -158 124 -255 198 -97 74 -177 138 -177 141 -1 4 14 10 32 13
17 3 124 35 237 70 113 35 206 63 207 61 2 -1 12 -122 23 -270z m-205 237 c-6
-5 -53 -21 -105 -36 -147 -42 -139 -40 -111 -21 13 10 67 28 120 40 53 13 98
23 101 24 2 1 0 -3 -5 -7z m-45 -332 c129 -100 239 -186 243 -190 7 -6 -412
-2 -420 4 -1 1 -18 80 -38 176 -20 96 -39 184 -42 195 -5 16 -3 18 8 9 8 -7
120 -94 249 -194z m-240 -325 c11 -143 23 -282 25 -310 l6 -50 -142 -130 c-79
-71 -164 -149 -190 -172 l-47 -43 29 108 c16 59 84 321 150 582 67 261 124
482 127 490 3 8 9 -37 13 -100 5 -63 17 -232 29 -375z m1066 373 c33 -50 63
-99 68 -107 6 -9 -38 29 -97 84 -95 90 -104 101 -84 107 47 13 54 8 113 -84z
m-10 -124 c82 -108 156 -206 164 -217 14 -19 13 -20 -15 -14 -17 3 -163 27
-325 52 -162 26 -305 49 -318 51 -19 4 -11 14 65 78 49 41 131 112 183 159 52
47 96 86 96 86 1 1 69 -87 150 -195z m111 74 l53 -49 -16 -31 c-15 -29 -17
-30 -27 -12 -6 10 -37 60 -71 109 -66 99 -59 97 61 -17z m-1127 -332 c0 -93
-2 -167 -4 -165 -2 2 -11 101 -20 219 -9 118 -18 242 -21 275 -4 51 -1 43 20
-50 20 -92 24 -138 25 -279z m1075 264 c58 -56 74 -78 92 -131 12 -35 21 -65
20 -66 -2 -1 -56 68 -120 154 -120 158 -118 166 8 43z m164 -148 c27 -78 48
-142 46 -142 -2 0 -31 52 -63 116 -54 104 -58 119 -49 145 6 15 12 27 13 26 2
-1 25 -66 53 -145z m-1029 -150 l0 -157 -81 145 c-44 80 -85 149 -90 155 -18
18 -8 20 81 17 l90 -3 0 -157z m433 -98 c-20 -88 -27 -97 -72 -90 -28 5 -257
16 -319 16 -8 0 -10 48 -9 153 l2 152 107 5 c58 3 109 8 112 11 3 3 48 -36
100 -86 l95 -91 -16 -70z m187 196 c265 -42 339 -58 272 -59 -36 -1 -354 -38
-387 -45 -14 -3 -48 19 -115 76 -79 67 -90 80 -65 75 17 -3 149 -25 295 -47z
m409 -37 c38 -73 39 -75 12 -48 -24 25 -69 125 -56 125 2 0 22 -35 44 -77z
m-1120 -94 c61 -106 85 -156 77 -162 -19 -14 -179 -107 -183 -107 -1 0 -3 29
-3 63 0 93 13 368 17 364 1 -2 43 -73 92 -158z m1038 48 c-33 -22 -441 -309
-489 -344 -27 -19 -48 -31 -48 -26 1 4 18 80 38 168 l37 160 210 26 c116 15
224 27 240 27 27 1 28 -1 12 -11z m49 4 c-5 -7 -56 -491 -56 -528 0 -10 -6
-13 -17 -8 -10 4 -124 35 -254 68 -129 34 -237 65 -240 68 -2 4 113 89 256
189 143 100 271 191 284 201 26 21 35 24 27 10z m85 -78 l28 -32 -71 -185
c-40 -102 -73 -184 -74 -183 -2 1 6 77 16 167 10 91 21 199 25 240 l7 74 20
-24 c11 -14 33 -39 49 -57z m-891 -271 c-14 -1 -104 1 -199 5 l-175 8 98 56
98 55 102 -60 c83 -50 97 -61 76 -64z m144 109 l90 -6 -81 -53 -80 -53 -94 55
c-52 31 -101 60 -109 65 -15 10 64 7 274 -8z m72 -57 c-3 -9 -9 -34 -12 -56
-6 -34 -10 -39 -28 -34 -12 4 -33 9 -48 12 -16 4 -28 9 -28 13 1 8 102 80 114
81 4 0 5 -7 2 -16z m-336 -84 c113 -11 221 -21 240 -23 21 -2 29 -6 20 -9 -8
-4 -188 -58 -400 -122 -212 -63 -411 -124 -442 -135 -32 -11 -58 -18 -58 -15
0 2 19 21 42 42 23 20 105 95 182 165 134 123 141 128 175 123 20 -3 128 -14
241 -26z m218 1 c8 -5 -8 -6 -40 -4 -73 6 -83 11 -23 12 28 0 56 -3 63 -8z
m240 -331 c25 -52 48 -99 50 -104 2 -4 -4 -6 -14 -2 -15 4 -570 59 -1094 109
-45 4 -64 -2 350 121 195 58 402 121 460 139 l105 33 48 -100 c27 -56 70 -144
95 -196z m153 220 l245 -64 -165 -129 c-91 -71 -167 -125 -168 -120 -2 4 -44
93 -93 196 -49 104 -84 187 -76 185 7 -2 123 -32 257 -68z m-1304 -172 c-2
-29 -3 -6 -3 52 0 58 1 81 3 53 2 -29 2 -77 0 -105z m371 -88 c78 -7 141 -15
138 -17 -5 -5 -499 27 -505 32 -1 2 -1 8 2 12 3 5 54 3 114 -3 59 -7 172 -18
251 -24z"/>
</g>
</svg>
