<?xml version="1.0" standalone="no"?>
<!DOCTYPE svg PUBLIC "-//W3C//DTD SVG 20010904//EN"
 "http://www.w3.org/TR/2001/REC-SVG-20010904/DTD/svg10.dtd">
<svg version="1.0" xmlns="http://www.w3.org/2000/svg"
 width="256.000000pt" height="256.000000pt" viewBox="0 0 256.000000 256.000000"
 preserveAspectRatio="xMidYMid meet">
<metadata>
Created by potrace 1.10, written by Peter Selinger 2001-2011
</metadata>
<g transform="translate(0.000000,256.000000) scale(0.100000,-0.100000)"
fill="#000000" stroke="none">
<path d="M1533 2537 c-3 -5 -16 -6 -28 -3 -13 3 -27 2 -30 -4 -3 -5 -19 -10
-36 -10 -16 0 -29 -4 -29 -10 0 -5 -13 -10 -29 -10 -16 0 -31 -6 -34 -15 -3
-8 -26 -23 -50 -34 -24 -11 -50 -27 -57 -36 -7 -8 -18 -15 -24 -15 -13 0 -174
-157 -193 -189 -17 -28 -16 -31 7 -31 11 0 20 5 20 10 0 6 6 10 14 10 7 0 19
7 26 15 7 9 19 14 26 11 14 -5 70 19 79 35 4 5 11 7 16 4 5 -4 12 1 15 10 5
13 15 15 39 11 22 -5 36 -2 45 9 9 11 23 13 51 9 30 -5 40 -3 45 9 5 14 56 16
452 16 l447 0 0 -469 c0 -379 -3 -471 -13 -475 -10 -3 -11 -17 -7 -49 6 -35 4
-44 -10 -50 -11 -4 -15 -12 -11 -23 4 -9 -1 -24 -10 -34 -10 -11 -13 -19 -9
-19 4 0 0 -9 -9 -19 -10 -11 -15 -24 -12 -29 7 -11 -8 -42 -41 -89 -13 -17
-23 -34 -23 -37 0 -10 29 -7 51 7 28 16 142 135 150 155 4 10 19 28 33 41 14
14 26 30 26 38 0 7 9 18 20 25 11 7 20 21 20 30 0 10 5 18 10 18 6 0 10 10 10
23 0 26 21 77 33 77 4 0 7 13 7 29 0 17 5 33 11 37 8 4 9 25 5 60 -3 30 -3 54
1 54 5 0 8 206 8 458 l0 457 -503 0 c-277 0 -506 -4 -509 -8z m985 -19 c9 -9
12 -117 12 -422 0 -337 -3 -424 -16 -481 -32 -144 -77 -264 -121 -322 -73 -97
-120 -150 -127 -142 -3 3 6 33 20 68 44 109 47 145 51 629 l4 462 -25 25 -25
25 -427 0 c-235 0 -443 -4 -463 -9 -20 -5 -69 -17 -110 -26 -41 -9 -88 -23
-104 -31 -99 -52 11 61 121 124 36 20 109 54 161 74 l96 37 470 0 c354 1 474
-2 483 -11z"/>
<path d="M1608 2122 c-307 -1 -478 -6 -478 -12 0 -6 -15 -10 -34 -10 -19 0
-38 -4 -41 -10 -3 -5 -17 -10 -30 -10 -13 0 -27 -4 -30 -10 -3 -5 -14 -10 -25
-10 -10 0 -44 -13 -75 -30 -31 -16 -63 -30 -70 -30 -7 0 -15 -7 -19 -15 -3 -9
-14 -19 -25 -23 -26 -9 -177 -157 -198 -193 -13 -21 -14 -32 -6 -40 8 -8 16
-4 28 15 10 14 25 26 35 26 9 0 52 18 95 40 51 26 91 40 116 40 22 0 39 5 39
10 0 6 23 10 50 10 28 0 50 5 50 10 0 7 153 10 440 10 l440 0 0 -470 c0 -307
-3 -470 -10 -470 -5 0 -10 -20 -10 -44 0 -25 -4 -48 -10 -51 -5 -3 -10 -15
-10 -25 0 -11 -9 -35 -20 -55 -11 -20 -20 -42 -20 -49 0 -19 -42 -99 -59 -112
-8 -6 -11 -18 -8 -28 6 -16 8 -16 32 0 36 24 159 152 167 175 4 11 14 22 23
25 8 4 15 15 15 25 0 10 9 24 20 31 11 7 20 18 20 25 0 7 9 28 20 48 11 20 20
42 20 50 0 8 9 30 20 50 11 20 20 49 20 64 0 16 4 31 10 33 12 4 15 998 3
1007 -4 3 -223 5 -485 3z m450 -507 c2 -304 -1 -477 -8 -510 -17 -80 -63 -183
-122 -275 -80 -124 -114 -147 -78 -52 48 125 52 179 52 656 0 444 0 449 -21
470 -21 21 -29 21 -419 24 -396 3 -398 3 -537 -24 -77 -14 -157 -35 -178 -46
-38 -19 -38 -19 -28 1 24 44 151 128 247 163 156 57 144 56 634 54 l455 -1 3
-460z"/>
<path d="M715 1671 c-4 -10 -17 -12 -45 -8 -27 3 -43 1 -51 -10 -7 -8 -21 -12
-30 -10 -10 3 -24 -1 -30 -9 -7 -8 -20 -12 -30 -9 -9 3 -20 1 -24 -5 -7 -11
-96 -55 -106 -52 -4 0 -15 -8 -24 -18 -10 -11 -23 -20 -29 -20 -15 0 -186
-172 -186 -186 0 -7 -7 -17 -15 -24 -9 -7 -25 -33 -36 -56 -10 -24 -26 -47
-36 -52 -10 -6 -14 -17 -11 -30 4 -12 0 -26 -8 -33 -8 -6 -14 -22 -14 -35 0
-12 -5 -26 -10 -29 -6 -4 -8 -15 -5 -26 4 -10 4 -23 0 -28 -3 -6 -6 -235 -6
-511 l0 -501 452 0 c248 0 454 3 457 6 3 2 29 2 57 -1 34 -4 55 -3 59 5 4 6
20 11 36 11 15 0 30 7 34 15 3 8 12 12 19 9 8 -3 31 4 51 15 20 12 42 21 49
21 7 0 18 9 25 20 7 11 20 20 30 20 9 0 23 9 30 20 7 11 18 20 25 20 7 0 44
32 82 70 38 39 65 70 60 70 -5 0 7 17 27 38 30 31 46 56 53 82 5 21 47 100 55
105 5 3 7 18 4 33 -4 19 0 32 10 41 8 7 12 19 9 27 -3 8 0 20 6 28 8 10 11
155 12 510 l0 497 -470 2 c-392 2 -472 0 -476 -12z m915 -493 c0 -449 -1 -476
-20 -526 -11 -29 -20 -60 -20 -69 0 -20 -74 -175 -93 -195 -7 -7 -23 -26 -35
-43 -113 -148 -289 -254 -493 -297 -36 -8 -205 -12 -494 -12 l-440 -1 -3 477
-2 476 30 84 c36 97 80 185 124 247 67 95 189 199 286 244 69 32 175 67 205
67 16 0 37 5 45 10 9 6 191 10 463 10 l447 0 0 -472z"/>
<path d="M465 1382 c-39 -13 -83 -41 -89 -57 -12 -32 -6 -39 14 -17 12 12 29
22 40 22 10 0 20 5 22 10 2 7 161 10 451 11 l448 0 0 -428 c-1 -277 -4 -429
-11 -431 -5 -2 -10 -11 -10 -21 0 -23 -20 -41 -45 -41 -20 0 -20 2 -17 430 l3
431 -430 -3 c-236 -2 -433 -6 -437 -10 -4 -5 -4 -11 0 -15 4 -5 192 -9 416
-11 l409 -3 3 -403 3 -404 24 -21 c13 -12 26 -21 28 -21 12 0 49 26 64 44 37
44 40 90 37 498 l-3 397 -23 23 -23 23 -427 2 c-235 1 -436 -2 -447 -5z"/>
<path d="M235 1011 c-41 -18 -74 -64 -55 -76 6 -4 10 -1 10 6 0 16 31 38 53
39 9 0 17 5 17 10 0 6 130 10 370 10 l370 0 0 -339 c0 -297 -2 -340 -15 -345
-12 -4 -14 -14 -10 -38 4 -26 0 -39 -19 -60 -51 -57 -51 -57 -48 342 l3 370
-333 0 c-183 0 -343 -3 -355 -6 -67 -18 7 -24 301 -24 282 0 327 -2 340 -16
14 -13 16 -59 16 -349 l0 -335 25 -16 c23 -15 27 -15 50 0 65 42 75 109 75
482 l0 315 -25 24 -24 25 -353 -1 c-317 0 -357 -2 -393 -18z"/>
<path d="M282 654 c-45 -17 -79 -55 -66 -75 5 -9 10 -6 15 9 5 12 20 24 36 27
15 4 36 10 45 16 10 5 83 9 163 9 l145 0 0 -159 c0 -96 -4 -162 -10 -166 -5
-3 -10 -15 -10 -26 0 -14 -7 -19 -26 -19 l-26 0 3 151 3 152 -148 -2 c-81 -1
-155 -5 -163 -8 -35 -13 17 -23 129 -23 64 0 123 -3 132 -6 13 -5 16 -26 16
-123 0 -91 4 -122 16 -139 23 -33 62 -26 91 17 21 32 23 44 23 185 -1 119 -4
155 -16 171 -13 18 -28 20 -162 22 -112 2 -157 -2 -190 -13z"/>
</g>
</svg>
