<?xml version="1.0" standalone="no"?>
<!DOCTYPE svg PUBLIC "-//W3C//DTD SVG 20010904//EN"
 "http://www.w3.org/TR/2001/REC-SVG-20010904/DTD/svg10.dtd">
<svg version="1.0" xmlns="http://www.w3.org/2000/svg"
 width="300.000000pt" height="394.000000pt" viewBox="0 0 300.000000 394.000000"
 preserveAspectRatio="xMidYMid meet">
<metadata>
Created by potrace 1.10, written by Peter Selinger 2001-2011
</metadata>
<g transform="translate(0.000000,394.000000) scale(0.100000,-0.100000)"
fill="#000000" stroke="none">
<path d="M1190 3822 c-47 -16 -93 -42 -73 -42 7 0 15 5 18 10 3 6 14 10 23 10
13 0 13 -2 -4 -16 -18 -15 -18 -15 3 -5 15 8 22 8 25 0 2 -7 22 -12 43 -13 22
-1 49 -6 60 -10 11 -4 7 0 -9 9 -16 9 -41 15 -57 13 -31 -5 -50 19 -27 33 7 5
15 4 16 -1 2 -6 8 -10 13 -10 6 0 7 5 4 10 -3 6 -1 10 4 10 6 0 11 -3 11 -8 0
-4 9 -13 20 -20 18 -11 19 -10 8 13 -15 32 -25 35 -78 17z"/>
<path d="M1355 3832 c-3 -3 -5 -19 -5 -35 0 -25 2 -28 15 -17 8 7 15 18 15 24
0 6 -5 4 -10 -4 -8 -13 -10 -13 -10 2 0 25 21 33 27 10 5 -21 29 -36 43 -27 5
3 11 1 15 -5 7 -11 25 -4 25 8 0 7 -16 11 -57 14 -7 1 -13 6 -13 11 0 5 13 7
30 5 16 -2 31 0 33 6 4 11 -97 19 -108 8z"/>
<path d="M1490 3828 c-18 -7 -21 -11 -11 -17 7 -5 10 -15 7 -22 -4 -8 0 -5 8
5 9 11 16 25 17 30 0 6 4 2 9 -9 7 -16 9 -17 9 -3 1 23 -9 27 -39 16z"/>
<path d="M1540 3815 c0 -14 -5 -25 -12 -25 -6 0 -8 -3 -5 -6 4 -4 14 -1 24 7
15 12 16 12 10 -3 -3 -10 -3 -19 1 -22 4 -2 8 13 9 35 1 28 -2 39 -13 39 -8 0
-14 -10 -14 -25z"/>
<path d="M1585 3795 c2 -25 -1 -45 -6 -45 -5 0 -9 -12 -9 -27 0 -28 9 -26 15
4 2 10 4 18 5 18 3 0 12 39 13 58 1 9 5 17 10 17 4 0 5 5 2 10 -3 6 -12 10
-19 10 -10 0 -13 -13 -11 -45z"/>
<path d="M1630 3810 c0 -20 2 -25 11 -23 5 2 18 -4 28 -14 19 -16 19 -16 -2
-34 -12 -10 -17 -18 -10 -19 6 0 19 7 28 16 12 13 19 14 30 4 21 -18 19 -35
-2 -19 -16 13 -17 12 -4 -3 10 -14 18 -15 32 -7 10 5 19 13 19 16 0 3 -3 3 -7
0 -3 -4 -12 2 -20 13 -8 11 -21 20 -29 20 -9 0 -12 5 -8 12 4 6 3 8 -3 5 -6
-4 -16 0 -23 8 -7 8 -9 15 -4 15 11 0 -18 20 -28 20 -5 0 -8 -4 -8 -10z"/>
<path d="M1680 3800 c0 -5 8 -11 18 -12 33 -2 37 -4 64 -22 15 -10 33 -16 40
-13 8 3 6 6 -5 6 -10 1 -16 5 -13 10 10 15 -23 34 -48 27 -14 -3 -28 -2 -31 4
-8 13 -25 13 -25 0z"/>
<path d="M1070 3789 c0 -6 -4 -8 -9 -4 -5 3 -12 1 -16 -5 -6 -10 -113 -64
-127 -65 -4 0 -43 -30 -88 -67 -45 -38 -85 -68 -90 -68 -5 0 -19 -15 -31 -32
l-22 -33 34 33 c36 33 62 44 39 17 -10 -12 -9 -15 4 -15 10 0 14 5 11 10 -3 6
0 10 7 10 11 0 11 2 0 9 -10 6 -5 13 19 29 21 13 37 17 44 12 7 -6 21 2 39 20
29 31 25 42 -5 14 -9 -8 -20 -11 -23 -6 -3 5 7 18 22 29 31 23 87 40 77 23 -3
-5 -2 -10 4 -10 15 0 23 18 10 22 -7 2 -5 9 5 17 13 11 16 11 16 0 0 -8 6 -5
15 7 8 10 15 14 15 7 0 -6 -7 -18 -15 -27 -19 -19 -19 -27 0 -20 11 5 13 2 9
-10 -5 -12 -2 -15 10 -10 9 3 16 1 16 -5 0 -6 7 -8 15 -5 8 4 14 16 14 28 -1
16 -2 17 -6 4 -4 -14 -8 -16 -24 -8 -10 6 -19 15 -19 21 0 6 4 8 9 5 5 -4 21
-2 36 4 24 9 25 12 14 27 -17 20 -16 25 7 33 16 6 16 7 1 13 -9 3 -17 2 -17
-4z m-19 -43 c-10 -12 -8 -14 11 -10 21 4 21 4 3 -5 -11 -5 -23 -10 -27 -10
-13 -1 -9 37 5 42 18 6 21 -1 8 -17z"/>
<path d="M1880 3762 c0 -4 6 -14 13 -21 10 -11 8 -11 -11 -1 -13 6 -27 9 -30
5 -10 -9 19 -24 40 -20 10 2 18 0 18 -5 0 -13 30 -40 43 -40 7 0 4 5 -6 11 -9
6 -15 15 -11 20 8 13 34 -9 34 -29 0 -12 3 -13 12 -4 14 14 52 -4 42 -20 -4
-6 -3 -8 4 -4 6 3 20 -6 31 -20 12 -15 21 -21 21 -15 0 7 5 9 12 5 7 -4 8 -3
4 4 -4 7 -12 12 -17 12 -6 0 -24 14 -41 30 -17 17 -35 29 -42 27 -6 -3 -23 7
-38 21 -26 24 -28 24 -29 6 0 -10 -3 -13 -6 -7 -2 7 -4 15 -3 18 1 7 -26 35
-34 35 -3 0 -6 -4 -6 -8z"/>
<path d="M1348 3741 c3 -9 9 -21 14 -28 6 -7 7 -17 4 -22 -4 -5 -1 -13 5 -17
8 -4 7 -9 -2 -16 -11 -8 -10 -9 3 -4 10 3 20 1 23 -4 3 -4 0 -10 -7 -12 -7 -3
-5 -7 6 -11 10 -4 15 -3 11 3 -7 12 7 13 21 3 5 -5 -5 5 -23 20 -18 16 -30 33
-27 38 3 6 0 16 -6 24 -7 8 -10 21 -7 28 3 8 -1 14 -8 14 -8 0 -11 -7 -7 -16z"/>
<path d="M1155 3693 c11 -3 36 -17 55 -31 24 -17 30 -20 19 -6 -9 10 -14 26
-12 34 3 10 2 11 -4 3 -6 -8 -14 -9 -23 -3 -8 6 -24 9 -35 9 -20 -1 -20 -1 0
-6z"/>
<path d="M1494 3692 c4 -7 2 -12 -3 -12 -6 0 -11 -7 -11 -15 0 -8 -5 -15 -11
-15 -5 0 -7 -5 -3 -11 3 -6 0 -15 -7 -20 -10 -6 -8 -8 8 -7 13 1 19 7 16 15
-3 7 2 24 11 38 11 17 13 26 4 31 -7 4 -8 3 -4 -4z"/>
<path d="M1566 3674 c-9 -9 -24 -13 -35 -9 -11 3 -22 1 -26 -4 -4 -7 1 -8 12
-4 15 6 16 4 5 -9 -7 -9 -11 -28 -8 -43 8 -43 18 -44 14 -1 -2 26 1 40 10 44
11 3 12 0 4 -15 -7 -13 -7 -24 0 -34 8 -11 9 -11 4 4 -3 9 -1 17 5 17 6 0 8 4
5 9 -3 5 4 20 15 35 23 29 19 35 -5 10z"/>
<path d="M1676 3681 c-3 -4 18 -7 46 -6 31 1 56 -4 64 -13 8 -7 14 -9 14 -3 0
5 -5 13 -11 17 -16 9 -108 13 -113 5z"/>
<path d="M995 3660 c3 -5 -1 -12 -9 -17 -12 -6 -3 -21 38 -67 29 -33 53 -53
53 -45 0 8 4 23 7 34 6 16 5 16 -6 -3 -14 -22 -14 -21 -51 28 -35 47 -39 66
-7 38 12 -11 12 -10 2 4 -10 13 -10 17 0 20 7 3 3 7 -10 10 -12 4 -20 2 -17
-2z"/>
<path d="M1900 3660 c12 -9 10 -11 -12 -7 -15 2 -33 0 -40 -4 -9 -6 -7 -8 7
-7 11 1 36 -2 55 -5 19 -4 27 -3 17 1 -10 4 -18 12 -17 17 1 5 -4 11 -12 13
-9 2 -8 0 2 -8z"/>
<path d="M1051 3651 c-11 -7 -9 -11 7 -20 16 -8 23 -7 33 7 7 9 9 14 5 10 -5
-4 -14 -4 -20 2 -7 5 -18 5 -25 1z"/>
<path d="M1188 3648 c9 -11 10 -18 2 -23 -6 -3 -8 -11 -4 -16 3 -5 9 -7 13 -4
5 2 16 -4 26 -15 9 -10 22 -17 29 -14 15 6 87 -31 78 -40 -3 -4 1 -4 11 0 21
8 12 24 -13 24 -10 0 -25 6 -32 13 -19 19 -48 28 -48 15 0 -6 -11 -1 -25 12
-17 16 -21 26 -14 31 8 4 3 11 -12 20 -21 11 -23 11 -11 -3z"/>
<path d="M1679 3649 c-8 -5 -23 -6 -34 -3 -16 4 -17 3 -5 -5 13 -9 13 -11 -2
-11 -10 0 -18 -4 -18 -9 0 -11 62 10 73 24 4 6 10 5 16 -4 8 -13 31 -8 31 7 0
10 -45 11 -61 1z"/>
<path d="M1571 3624 c-6 -14 -9 -29 -6 -34 7 -11 35 -1 35 12 0 6 -6 5 -15 -2
-22 -18 -18 3 5 28 15 16 17 22 7 22 -8 0 -19 -12 -26 -26z"/>
<path d="M1101 3626 c-8 -10 -9 -16 -1 -21 6 -4 10 -3 9 2 -4 23 4 21 38 -12
20 -20 42 -34 49 -31 6 2 17 -1 23 -7 6 -6 13 -9 15 -6 2 2 -8 13 -22 23 -14
11 -22 14 -18 8 4 -7 3 -12 -3 -12 -5 0 -14 6 -18 13 -4 6 -20 22 -34 35 -22
19 -28 21 -38 8z"/>
<path d="M1315 3626 c-18 -13 -18 -16 -5 -30 13 -12 17 -13 28 0 7 8 8 14 2
14 -5 0 -10 5 -10 10 0 13 27 13 33 0 3 -6 4 -5 3 2 -4 19 -29 21 -51 4z"/>
<path d="M1666 3593 c-6 -15 -8 -15 -16 -3 -7 11 -9 10 -8 -7 2 -23 23 -21 33
5 5 14 8 14 15 2 6 -9 3 -18 -8 -26 -9 -7 -14 -15 -11 -19 4 -3 13 1 22 9 17
18 28 11 21 -12 -3 -10 1 -6 9 7 16 26 28 31 96 33 37 1 41 3 22 10 -13 5 -38
4 -57 -1 -18 -5 -35 -7 -38 -4 -3 3 -12 0 -20 -6 -12 -10 -17 -8 -26 8 -13 26
-26 27 -34 4z"/>
<path d="M1953 3584 c9 -11 14 -24 10 -28 -5 -4 -3 -6 2 -5 6 2 27 -5 49 -14
21 -9 43 -17 49 -17 18 0 -27 29 -45 30 -9 0 -23 6 -30 13 -7 6 -22 19 -33 27
-19 14 -20 14 -2 -6z"/>
<path d="M1870 3582 c0 -5 6 -9 13 -9 7 0 25 -3 41 -7 24 -6 26 -5 15 6 -16
15 -69 22 -69 10z"/>
<path d="M2024 3579 c-2 -4 13 -9 34 -11 23 -2 39 1 39 8 0 11 -66 14 -73 3z"/>
<path d="M865 3560 c4 -6 -10 -10 -34 -10 -22 0 -42 -4 -45 -9 -3 -4 8 -7 24
-5 17 2 30 1 30 -1 0 -10 -41 -45 -52 -45 -10 0 -9 -3 1 -9 9 -6 10 -11 2 -15
-6 -4 -14 0 -17 8 -3 9 -10 13 -15 10 -5 -3 -2 -12 7 -21 14 -15 20 -11 69 40
39 41 49 57 39 61 -9 3 -12 1 -9 -4z"/>
<path d="M1780 3559 c0 -4 -9 -11 -20 -14 -11 -3 -20 -10 -20 -16 0 -5 18 1
40 12 22 12 40 22 40 23 0 1 -9 2 -20 2 -11 0 -20 -4 -20 -7z"/>
<path d="M2133 3550 c-1 -11 2 -21 8 -21 5 -1 14 -2 20 -3 6 0 17 -10 25 -20
8 -11 14 -14 14 -8 0 9 4 9 19 0 11 -7 17 -16 14 -22 -4 -5 -1 -6 6 -2 16 10
-17 49 -35 42 -6 -2 -21 9 -33 25 -25 34 -36 37 -38 9z"/>
<path d="M1815 3540 c-4 -6 -10 -8 -14 -5 -5 2 -16 -4 -26 -15 -15 -16 -16
-23 -6 -33 10 -9 11 -8 5 7 -6 15 -4 17 6 11 8 -5 11 -4 7 2 -4 6 4 14 18 17
14 4 25 11 25 16 0 13 -7 13 -15 0z"/>
<path d="M717 3522 c-6 -8 -12 -26 -12 -38 -1 -29 15 -16 18 15 1 13 8 21 19
21 10 0 18 4 18 8 0 14 -29 10 -43 -6z"/>
<path d="M1864 3515 c-24 -18 -38 -19 -28 -2 4 6 3 8 -1 4 -15 -13 -14 -37 1
-37 8 0 14 5 14 10 0 6 6 10 14 10 8 0 16 7 20 15 7 19 5 19 -20 0z"/>
<path d="M1396 3505 c-21 -16 -40 -20 -32 -7 2 4 -5 9 -16 9 -15 2 -18 -1 -10
-9 6 -6 25 -12 42 -13 16 -1 28 0 25 3 -3 3 0 11 6 19 15 17 9 16 -15 -2z"/>
<path d="M2130 3511 c0 -6 9 -16 20 -23 11 -7 20 -16 20 -21 0 -4 -4 -5 -10
-2 -5 3 -10 2 -10 -3 0 -14 32 -24 42 -14 4 4 -8 23 -27 41 -19 18 -35 28 -35
22z"/>
<path d="M2210 3471 c0 -8 8 -23 17 -33 15 -17 15 -20 3 -28 -11 -7 -9 -9 8
-7 27 2 27 0 -3 45 -14 20 -25 30 -25 23z"/>
<path d="M695 3432 c-17 -2 -38 -14 -47 -27 -14 -18 -15 -23 -3 -21 8 1 23 10
35 21 11 10 36 19 55 19 18 1 36 4 40 7 6 7 -33 7 -80 1z"/>
<path d="M2202 3381 c-11 -6 -10 -10 4 -15 9 -3 14 -9 10 -13 -3 -3 1 -15 11
-25 21 -24 12 -23 -32 3 -29 18 -39 19 -48 9 -9 -10 -9 -11 0 -6 24 13 71 -23
101 -79 28 -52 29 -83 2 -50 -20 24 -97 82 -80 60 14 -17 13 -18 -2 -12 -10 3
-18 2 -18 -3 0 -6 7 -10 16 -10 8 0 12 -5 9 -11 -4 -6 1 -16 11 -23 23 -18 1
-31 -27 -16 -11 7 -23 9 -27 6 -3 -3 0 -6 7 -6 7 0 10 -4 7 -8 -2 -4 9 -8 25
-7 16 0 29 -3 29 -8 0 -51 1 -50 -17 -36 -16 13 -17 12 -4 -3 10 -14 11 -21 2
-32 -9 -11 -9 -20 -2 -34 6 -11 7 -23 3 -26 -4 -4 2 -12 12 -18 14 -8 15 -12
6 -18 -15 -9 -23 -60 -10 -60 5 0 14 9 20 21 9 16 14 18 26 8 8 -6 14 -19 15
-28 0 -10 2 -11 6 -4 2 7 -6 27 -18 45 -13 18 -24 39 -25 46 -2 8 -10 22 -19
32 -17 19 -12 46 6 35 5 -3 6 2 2 11 -4 12 -3 15 5 10 8 -5 10 -1 5 10 -5 13
-3 15 8 9 12 -8 12 -6 0 8 -7 9 -10 17 -6 17 4 0 2 7 -5 15 -9 11 -9 15 -1 15
6 0 21 -15 32 -32 17 -28 19 -29 14 -8 -9 30 -34 60 -50 60 -6 0 -12 7 -12 15
0 8 3 15 7 15 9 0 57 -52 63 -70 4 -11 6 -10 7 5 2 17 3 16 9 -5 4 -14 3 -31
-2 -37 -7 -9 -5 -13 7 -13 14 0 16 8 13 40 -2 22 -6 43 -10 47 -9 9 -9 23 1
22 28 -5 39 18 17 38 -4 4 -6 3 -2 -2 3 -6 -3 -16 -13 -23 -16 -10 -21 -9 -30
8 -6 11 -8 26 -4 32 5 7 3 8 -5 3 -9 -5 -12 -1 -10 11 1 11 -2 30 -8 44 -6 14
-12 30 -14 37 -2 8 -9 9 -17 4z"/>
<path d="M678 3353 c-21 -9 -38 -22 -38 -30 0 -8 -5 -11 -12 -7 -6 4 -8 3 -5
-3 3 -5 -3 -17 -14 -26 -10 -9 -19 -22 -19 -28 0 -6 14 3 30 21 17 18 30 36
30 41 0 13 49 31 62 23 6 -4 8 -2 4 4 -3 6 3 12 16 15 19 3 19 4 3 5 -11 0
-37 -7 -57 -15z"/>
<path d="M2120 3310 c-12 -8 -10 -10 11 -10 14 0 34 -7 45 -15 10 -8 26 -14
34 -14 8 0 -3 11 -25 24 -45 28 -45 28 -65 15z"/>
<path d="M602 3218 c-18 -57 -26 -152 -13 -143 7 4 10 13 7 20 -2 7 4 30 15
50 11 20 18 40 15 43 -3 3 -6 0 -6 -6 0 -7 -4 -12 -9 -12 -6 0 -5 15 1 36 12
46 3 56 -10 12z"/>
<path d="M614 3095 c-10 -19 -22 -35 -26 -35 -5 0 -8 -4 -8 -10 0 -5 3 -10 8
-10 9 0 55 80 49 86 -2 2 -12 -12 -23 -31z"/>
<path d="M2290 3083 c0 -22 -2 -25 -10 -13 -5 8 -10 10 -10 4 0 -6 7 -17 15
-24 8 -7 12 -16 9 -21 -3 -5 1 -9 10 -9 12 0 13 6 5 35 -6 19 -7 40 -4 45 3 6
1 10 -4 10 -6 0 -11 -12 -11 -27z"/>
<path d="M2117 3046 c-3 -8 1 -17 10 -20 8 -4 13 -13 10 -20 -3 -8 2 -20 11
-28 15 -11 15 -11 5 3 -10 12 -10 18 -1 27 9 9 9 12 -1 12 -7 0 -10 4 -7 9 3
5 0 14 -8 20 -10 9 -15 8 -19 -3z"/>
<path d="M579 3020 c-1 -8 -3 -30 -5 -48 -3 -44 -24 -132 -37 -157 -5 -11 -6
-16 -1 -12 4 4 14 -3 21 -15 12 -22 13 -21 8 12 -3 19 1 66 9 104 8 38 12 74
9 79 -3 5 -1 12 5 16 7 4 8 12 2 21 -9 13 -10 13 -11 0z"/>
<path d="M2254 3003 c0 -10 4 -20 8 -23 5 -4 12 -33 17 -72 1 -3 10 -4 21 -1
21 6 27 37 10 48 -5 3 -10 11 -10 17 0 7 4 7 14 -1 11 -9 12 -6 8 16 -5 25 -6
25 -18 8 -16 -22 -18 -45 -4 -45 6 0 10 -7 10 -15 0 -8 -4 -15 -9 -15 -10 0
-15 13 -26 68 -7 33 -24 45 -21 15z"/>
<path d="M2120 2970 c0 -18 5 -25 16 -25 6 0 20 -7 30 -15 11 -8 6 0 -10 18
-32 35 -36 37 -36 22z"/>
<path d="M2284 2859 c7 -23 7 -23 -8 -5 -18 22 -21 14 -6 -15 6 -10 14 -39 19
-64 8 -43 8 -45 -13 -39 -20 6 -20 5 -3 -8 11 -8 17 -23 15 -34 -2 -11 2 -18
10 -16 6 1 12 -3 12 -9 0 -8 5 -7 15 1 20 17 29 7 21 -25 -7 -29 -22 -33 -29
-7 -4 13 -5 11 -6 -5 0 -13 4 -23 9 -23 6 0 10 -7 10 -16 0 -9 -5 -12 -12 -8
-11 7 -9 -10 8 -50 5 -14 4 -17 -4 -12 -16 9 -15 4 4 -43 18 -45 13 -81 -5
-41 l-12 25 7 -25 c3 -14 6 -33 7 -42 1 -9 5 -14 10 -11 12 7 6 -101 -10 -167
-15 -67 -17 -93 -4 -70 13 22 40 188 35 213 -3 12 -7 54 -9 92 -3 39 -6 82 -8
96 -2 15 2 46 10 69 18 51 12 70 -22 70 -18 0 -25 5 -25 19 0 11 5 23 10 26 6
3 9 25 9 48 l-2 42 -7 -40 -7 -40 -3 35 c-2 19 -2 47 -1 62 0 15 -4 30 -10 34
-8 4 -9 -1 -5 -17z"/>
<path d="M2211 2793 c-10 -4 -8 -9 8 -18 21 -11 22 -13 7 -28 -9 -8 -16 -26
-16 -39 1 -21 2 -21 15 7 l15 30 -4 -27 c-1 -15 1 -25 6 -22 12 8 3 77 -11 82
-6 2 -9 8 -5 13 6 10 5 10 -15 2z"/>
<path d="M833 2773 c20 -2 37 -8 37 -13 0 -5 8 -6 17 -3 15 6 15 7 -3 14 -10
4 -35 7 -54 7 l-35 -1 38 -4z"/>
<path d="M1806 2765 c-3 -8 -1 -15 5 -15 6 0 6 -7 -1 -20 -12 -22 -29 -27 -26
-7 2 18 -17 20 -20 2 -1 -8 3 -15 9 -15 7 0 3 -7 -7 -15 -17 -13 -18 -15 -3
-15 9 0 17 5 17 10 0 6 5 10 11 10 5 0 7 -4 4 -10 -3 -5 -1 -10 5 -10 7 0 10
7 6 15 -3 10 5 20 24 30 31 16 42 32 15 22 -19 -8 -31 13 -14 24 11 7 11 9 -2
9 -9 0 -19 -7 -23 -15z"/>
<path d="M1695 2750 c-4 -6 -9 -9 -13 -7 -4 2 -15 -4 -24 -15 -10 -10 -15 -18
-10 -18 4 0 -2 -7 -12 -15 -11 -8 -16 -15 -10 -15 14 1 101 80 87 80 -6 0 -15
-5 -18 -10z"/>
<path d="M529 2735 c-8 -28 4 -68 21 -73 12 -4 13 -2 3 9 -6 8 -13 30 -15 49
-2 26 -5 30 -9 15z"/>
<path d="M880 2731 c0 -7 -4 -9 -10 -6 -16 10 -11 -1 7 -16 11 -10 14 -10 9
-1 -9 16 -3 15 39 -2 31 -13 35 -13 35 0 0 9 -10 14 -28 14 -15 0 -33 5 -40
12 -9 9 -12 9 -12 -1z"/>
<path d="M1051 2731 c-8 -5 -21 -7 -30 -4 -9 4 -5 -3 9 -14 14 -11 38 -23 55
-27 l30 -8 -27 25 c-18 17 -23 27 -15 30 7 3 8 6 2 6 -5 0 -16 -3 -24 -8z"/>
<path d="M1136 2732 c-4 -6 -14 -8 -24 -5 -16 6 -16 6 1 -11 9 -10 15 -21 13
-25 -3 -4 0 -8 7 -8 7 0 25 -3 40 -7 16 -4 27 -2 27 4 0 5 -12 10 -26 10 -14
0 -22 4 -19 10 3 5 2 17 -3 26 -6 11 -12 13 -16 6z"/>
<path d="M1709 2723 c-13 -16 -12 -17 4 -4 9 8 20 11 24 7 4 -3 -2 -12 -12
-20 -14 -10 -15 -15 -5 -21 9 -5 11 -4 6 3 -4 7 -1 12 9 12 10 0 15 7 13 17
-4 24 -23 27 -39 6z"/>
<path d="M2010 2728 c0 -4 5 -8 11 -8 6 0 9 -6 6 -14 -5 -11 0 -12 24 -3 20 8
25 15 18 22 -7 7 -13 5 -19 -5 -8 -13 -14 -8 -12 11 1 3 -6 6 -14 6 -7 0 -14
-4 -14 -9z"/>
<path d="M1862 2712 c-24 -8 -42 -16 -40 -18 5 -4 78 13 85 20 13 12 -3 12
-45 -2z"/>
<path d="M2251 2675 c-1 -16 -3 -17 -11 -5 -7 11 -8 7 -6 -15 2 -16 9 -31 16
-33 8 -3 10 2 6 16 -5 16 -3 20 11 18 14 -2 18 -14 20 -49 2 -43 -2 -51 -27
-49 -3 0 -6 -8 -6 -18 0 -11 2 -17 5 -15 2 3 10 0 18 -6 9 -9 13 -8 13 0 0 6
-5 11 -11 11 -8 0 -7 5 1 15 11 13 15 13 22 3 6 -8 7 -4 2 12 -4 14 -7 39 -5
56 1 18 -5 37 -14 44 -8 7 -15 9 -16 4 0 -5 -4 0 -9 11 -9 20 -9 20 -9 0z"/>
<path d="M1510 2632 c6 -12 8 -27 5 -32 -3 -5 0 -12 6 -16 7 -4 9 -3 6 3 -4 6
11 15 33 22 22 6 40 16 40 21 0 4 -14 1 -31 -7 -31 -15 -33 -15 -51 8 -19 23
-19 23 -8 1z"/>
<path d="M960 2630 c-60 -7 -89 -20 -133 -56 -42 -35 -16 -29 28 6 22 17 51
31 69 31 17 1 48 3 69 5 20 2 37 -1 37 -6 0 -6 -7 -10 -16 -10 -8 0 -12 -4 -9
-10 3 -5 0 -10 -9 -10 -8 0 -16 6 -19 13 -2 6 -8 9 -12 4 -10 -9 4 -25 25 -27
8 -1 36 -2 63 -1 42 1 47 3 47 24 -1 20 -2 20 -11 5 -9 -16 -59 -26 -59 -12 0
15 22 44 31 39 5 -4 9 -1 9 4 0 12 -26 12 -110 1z"/>
<path d="M1080 2630 c0 -5 7 -10 15 -10 8 0 15 -5 15 -11 0 -6 6 -9 13 -6 7 3
24 -2 38 -10 l24 -14 -30 6 c-24 4 -27 3 -12 -5 9 -6 26 -9 36 -5 12 3 21 0
25 -10 3 -8 11 -15 18 -14 10 0 10 2 1 6 -7 2 -13 10 -13 17 0 6 -27 24 -59
39 -66 30 -71 31 -71 17z"/>
<path d="M1646 2605 c-38 -19 -71 -37 -74 -40 -11 -11 59 15 104 39 27 14 58
26 69 25 16 0 15 -2 -6 -10 -15 -6 -29 -18 -32 -28 -6 -24 10 -51 27 -45 19 7
32 -16 15 -27 -11 -7 -11 -9 2 -9 21 0 31 24 16 39 -6 6 -19 11 -29 11 -21 0
-24 23 -4 39 11 9 16 9 21 0 4 -6 1 -15 -6 -20 -11 -7 -10 -9 4 -9 11 0 17 8
17 21 0 16 5 20 20 16 11 -3 18 -1 15 3 -3 5 0 10 7 13 7 2 0 3 -15 1 -17 -2
-26 0 -22 6 14 23 -64 7 -129 -25z"/>
<path d="M1681 2586 c-9 -11 -44 -24 -83 -30 -4 -1 -13 -7 -20 -15 -11 -12
-10 -13 5 -7 10 3 27 6 38 6 16 0 94 59 78 60 -4 0 -12 -6 -18 -14z"/>
<path d="M1838 2572 c-4 -14 -14 -22 -28 -22 -20 0 -21 2 -9 17 12 14 12 16
-1 11 -25 -8 -17 -33 13 -36 28 -3 43 14 35 40 -3 7 -7 2 -10 -10z"/>
<path d="M2016 2579 c3 -6 0 -15 -7 -20 -22 -14 -33 -11 -19 5 10 13 8 13 -13
3 -18 -8 -21 -14 -13 -23 13 -14 26 -13 44 4 8 7 17 10 22 7 5 -3 12 0 16 6 4
8 3 9 -4 5 -7 -4 -12 -1 -12 8 0 9 -5 16 -11 16 -5 0 -7 -5 -3 -11z"/>
<path d="M2081 2559 c-26 -24 -28 -29 -12 -24 28 9 27 -3 -1 -15 -14 -5 -17
-9 -7 -9 8 -1 24 6 35 14 11 8 14 14 6 15 -9 0 -8 7 4 25 22 33 14 32 -25 -6z"/>
<path d="M561 2518 c1 -55 5 -50 11 15 2 20 0 37 -4 37 -4 0 -7 -24 -7 -52z"/>
<path d="M604 2557 c-2 -7 -3 -62 -2 -123 l3 -109 5 123 c3 67 4 122 2 122 -1
0 -5 -6 -8 -13z"/>
<path d="M1527 2563 c-16 -15 5 -93 25 -93 5 0 6 5 2 11 -3 6 0 16 7 21 11 8
10 9 -3 4 -13 -4 -20 2 -24 19 -3 13 -3 29 1 34 7 12 2 15 -8 4z"/>
<path d="M1815 2521 c-22 -3 -35 -9 -29 -13 5 -4 19 -5 30 -3 10 2 29 4 42 4
13 1 20 5 17 11 -3 6 -9 9 -13 9 -4 -1 -25 -5 -47 -8z"/>
<path d="M2250 2500 c-5 -31 -1 -166 6 -197 3 -18 11 -33 15 -33 5 0 15 -11
21 -25 8 -18 14 -22 19 -13 5 7 -3 21 -18 36 -23 21 -27 34 -31 103 -4 63 -2
79 9 79 10 0 11 3 3 8 -7 4 -14 18 -17 32 -2 14 -5 18 -7 10z"/>
<path d="M1020 2480 l-35 -7 40 -1 c22 0 54 4 70 8 l30 8 -35 0 c-19 -1 -51
-4 -70 -8z"/>
<path d="M2219 2433 c0 -21 -2 -51 -3 -66 -1 -16 2 -31 6 -33 4 -3 8 27 8 65
0 73 -9 101 -11 34z"/>
<path d="M557 2245 c3 -38 7 -72 9 -74 7 -8 3 64 -6 104 -7 31 -7 24 -3 -30z"/>
<path d="M598 2249 c-1 -28 0 -53 3 -55 3 -1 7 21 8 51 3 69 -6 72 -11 4z"/>
<path d="M1586 2210 c23 -137 18 -153 -55 -177 l-36 -12 40 5 c22 3 47 14 56
24 9 11 19 17 21 15 11 -12 -2 104 -16 140 l-16 40 6 -35z"/>
<path d="M2256 2133 c9 -66 16 -68 12 -5 -2 28 -7 52 -11 52 -5 0 -5 -21 -1
-47z"/>
<path d="M2291 2143 c0 -18 4 -33 9 -33 6 0 10 -16 10 -35 0 -19 -4 -35 -10
-35 -5 0 -9 -5 -7 -11 1 -6 -4 -14 -11 -16 -7 -3 -10 1 -6 11 3 8 1 23 -5 33
-10 15 -11 12 -9 -17 1 -19 -1 -41 -6 -48 -4 -7 -7 -27 -6 -45 5 -81 -1 -177
-10 -177 -5 0 -10 7 -10 15 0 8 -5 15 -10 15 -7 0 -7 -6 0 -20 6 -11 15 -20
21 -20 6 0 8 -9 4 -21 -5 -15 -4 -19 4 -15 7 5 11 -2 12 -16 0 -13 3 -17 6
-11 4 10 7 10 17 0 16 -17 70 -109 72 -125 2 -8 6 -17 10 -20 4 -4 4 2 1 13
-7 20 -7 20 9 0 8 -11 29 -47 45 -80 17 -33 36 -66 43 -73 7 -8 -6 26 -30 73
l-43 87 40 -6 c60 -10 112 -33 103 -47 -4 -7 -3 -9 3 -6 13 8 36 -17 25 -28
-4 -5 -2 -5 5 -1 8 4 23 -14 42 -53 17 -33 35 -62 40 -66 6 -3 7 -13 4 -22 -4
-10 -2 -14 4 -10 11 7 46 -26 38 -36 -3 -4 -2 -5 2 -2 11 8 103 -87 96 -99 -3
-6 -3 -8 2 -4 4 4 25 -6 46 -23 41 -32 185 -89 153 -60 -5 5 -33 16 -63 26
-30 10 -68 29 -85 44 -74 64 -183 188 -219 249 -22 37 -50 78 -62 92 -12 14
-20 32 -18 40 4 12 3 12 -5 1 -7 -9 -15 -10 -28 -3 -11 5 -49 15 -85 22 -65
12 -68 13 -92 59 -14 25 -37 57 -52 71 -25 23 -25 26 -23 152 3 112 5 129 21
134 26 8 47 56 40 95 -3 19 -9 36 -13 39 -4 3 -10 14 -13 25 -3 13 -5 9 -6
-12z"/>
<path d="M1094 2097 c-26 -32 -46 -67 -37 -67 11 1 75 90 65 90 -5 0 -17 -10
-28 -23z"/>
<path d="M1183 2093 c18 -21 62 -39 51 -22 -7 12 23 11 48 -2 11 -6 22 -8 25
-6 11 11 -52 34 -72 27 -13 -5 -29 -2 -45 8 -25 15 -25 15 -7 -5z"/>
<path d="M551 2087 c-1 -10 7 -34 18 -55 13 -26 20 -68 24 -137 9 -165 46
-270 137 -387 27 -34 46 -67 43 -72 -3 -5 -2 -6 4 -3 17 11 69 -65 88 -128 10
-33 24 -80 32 -105 8 -25 15 -53 16 -62 2 -27 10 -11 11 21 1 16 -2 27 -5 25
-7 -4 -39 105 -42 141 -1 11 -7 27 -14 35 -123 153 -183 236 -205 285 -33 75
-58 194 -58 280 0 42 -6 78 -17 98 -9 17 -19 43 -24 57 -5 17 -8 19 -8 7z"/>
<path d="M1430 2060 c-19 -10 -43 -19 -52 -20 -9 0 -20 -5 -24 -12 -4 -6 -3
-8 3 -5 5 3 26 7 46 9 20 1 34 5 32 9 -3 3 7 11 21 18 20 9 30 9 40 0 13 -10
34 -6 23 5 -15 15 -58 13 -89 -4z"/>
<path d="M2137 2055 c20 -26 28 -29 58 -14 17 8 15 8 -7 4 -21 -4 -31 0 -40
15 -7 11 -16 20 -21 20 -4 0 0 -11 10 -25z"/>
<path d="M1431 1995 c0 -15 28 -62 29 -47 0 7 5 10 11 6 6 -3 9 -19 7 -35 -3
-19 -1 -26 5 -20 5 5 6 26 3 47 -6 27 -10 34 -19 25 -8 -8 -14 -6 -24 11 -7
13 -12 19 -12 13z"/>
<path d="M1420 1915 c-7 -9 -10 -18 -6 -22 3 -3 6 -1 6 6 0 7 5 9 10 6 6 -4 7
-11 4 -17 -4 -7 -2 -8 4 -4 7 4 12 2 12 -3 0 -6 5 -11 11 -11 8 0 9 4 0 13 -6
8 -7 17 -3 21 4 4 3 7 -3 6 -21 -5 -29 1 -15 10 8 5 10 10 4 10 -6 0 -17 -7
-24 -15z"/>
<path d="M1600 1918 c0 -10 5 -18 11 -18 6 0 9 -6 6 -13 -3 -8 -2 -19 3 -26 5
-10 8 -9 13 2 3 8 -3 27 -14 43 -14 21 -19 24 -19 12z"/>
<path d="M1215 1840 c-4 -6 -10 -8 -14 -6 -3 3 -7 -4 -7 -14 0 -10 6 -16 12
-13 7 2 14 -4 17 -14 4 -16 5 -16 6 0 1 21 20 22 48 2 15 -11 22 -12 25 -3 3
8 12 8 34 1 25 -8 29 -15 32 -53 3 -40 2 -42 -20 -37 -13 3 -41 8 -63 12 -35
5 -37 4 -20 -6 22 -14 245 -22 245 -9 0 13 -34 22 -38 11 -2 -6 -24 -11 -48
-11 -41 0 -44 2 -44 26 0 44 15 61 51 56 20 -3 33 -12 36 -23 3 -11 9 -19 13
-19 5 0 6 10 3 21 -5 19 -3 21 20 16 14 -4 33 -10 44 -14 16 -6 17 -5 3 12
-14 17 -14 18 7 7 12 -7 28 -12 35 -11 7 0 -3 7 -22 16 -23 10 -36 11 -38 4
-2 -6 -8 -11 -13 -11 -4 0 -5 8 -2 18 5 14 4 15 -8 6 -15 -12 -137 -14 -154
-3 -5 4 -40 10 -78 14 -56 6 -65 10 -56 21 6 8 9 14 6 14 -3 0 -9 -5 -12 -10z"/>
<path d="M1701 1808 c-1 -23 -6 -28 -28 -29 -28 -2 -28 -2 -3 -6 14 -3 28 -10
32 -16 13 -22 18 0 9 39 -7 33 -9 35 -10 12z"/>
<path d="M1168 1809 c-5 -14 -67 -20 -89 -8 -12 6 -24 1 -43 -17 -14 -15 -23
-31 -19 -37 4 -6 10 -2 14 10 12 32 34 42 26 12 -5 -22 -5 -22 7 -6 12 16 66
21 66 6 0 -4 8 -10 18 -14 14 -5 15 -4 5 6 -17 17 -16 30 1 23 12 -5 32 24 22
33 -2 2 -6 -1 -8 -8z"/>
<path d="M2021 1763 c4 -23 -2 -43 -12 -38 -6 4 -8 14 -5 24 4 9 -3 5 -14 -9
-11 -14 -19 -32 -19 -40 0 -8 5 -4 10 10 8 20 12 22 19 10 6 -9 5 -18 -3 -23
-9 -6 -8 -7 3 -5 19 6 43 65 30 73 -6 4 -10 3 -9 -2z"/>
<path d="M1541 1738 c-1 -10 -5 -18 -11 -18 -5 0 -10 -4 -10 -10 0 -5 9 -10
20 -10 22 0 23 5 10 35 -7 17 -9 17 -9 3z"/>
<path d="M1241 1689 c11 -11 33 -25 49 -31 17 -5 31 -18 33 -31 4 -21 4 -21 6
1 1 17 -7 27 -32 37 -19 8 -39 21 -47 29 -7 9 -16 16 -21 16 -5 0 0 -9 12 -21z"/>
<path d="M1657 1694 c-4 -4 -7 -18 -7 -31 0 -13 -3 -22 -8 -19 -4 2 -25 -4
-47 -14 -31 -15 -35 -19 -17 -20 12 0 22 4 22 9 0 5 9 11 20 14 11 3 20 0 20
-5 0 -6 7 -5 15 2 9 7 13 20 10 28 -8 20 5 37 17 21 8 -12 9 -11 6 0 -5 17
-21 25 -31 15z"/>
<path d="M2261 1621 c-1 -64 -30 -157 -62 -193 l-20 -23 16 33 c23 48 9 39
-16 -10 -29 -57 -108 -144 -128 -141 -11 2 -12 0 -3 -3 9 -4 -18 -36 -79 -92
-141 -132 -220 -193 -244 -186 -14 4 -16 3 -7 -4 10 -7 -5 -21 -56 -55 -39
-26 -73 -51 -77 -57 -3 -5 -11 -10 -16 -10 -6 0 -8 4 -5 8 2 4 -4 8 -14 8 -10
0 -17 -3 -14 -7 2 -4 -2 -10 -8 -13 -7 -3 -2 -3 12 1 22 5 23 4 11 -11 -7 -9
-21 -16 -31 -16 -10 0 -24 -8 -31 -17 -13 -16 -12 -17 4 -4 9 8 21 11 25 7 4
-4 -2 -12 -12 -18 -10 -6 -35 -26 -56 -44 -20 -19 -41 -30 -45 -26 -5 4 -5 2
-2 -4 9 -15 -38 -58 -54 -49 -7 5 -10 4 -5 -3 3 -5 0 -13 -6 -15 -8 -3 -6 -6
5 -6 10 -1 48 28 85 63 100 97 201 178 273 221 35 21 71 44 79 52 62 56 106
95 180 159 92 80 259 255 279 291 18 34 50 144 40 137 -13 -8 -11 20 3 34 9 9
9 12 -1 12 -8 0 -11 7 -8 20 3 11 2 20 -3 20 -4 0 -8 -27 -9 -59z"/>
<path d="M1907 1641 c-11 -14 -10 -15 7 -1 18 14 19 13 13 -2 -4 -10 -2 -18 5
-18 7 0 6 -5 -2 -15 -6 -8 -9 -19 -5 -24 3 -6 1 -19 -4 -28 -6 -10 -11 -13
-11 -8 0 10 -30 -42 -30 -53 0 -2 14 12 30 33 17 21 30 42 30 48 0 5 7 4 15
-3 13 -10 18 -11 28 -1 9 10 8 11 -4 6 -10 -4 -20 -1 -24 4 -3 6 -11 9 -16 6
-5 -4 -9 -2 -9 4 0 5 8 15 18 20 10 7 12 11 4 11 -8 0 -11 7 -8 18 8 24 -19
25 -37 3z"/>
<path d="M1217 1615 c20 -19 41 -35 45 -35 4 0 5 -8 2 -17 -5 -15 -4 -15 4 -4
8 11 14 12 24 3 11 -9 18 -7 30 8 16 18 15 18 -18 13 -22 -4 -34 -2 -34 6 0 6
-5 10 -11 9 -6 -2 -14 4 -17 12 -2 8 -1 12 3 8 10 -9 35 10 35 26 0 6 -4 5 -9
-3 -13 -20 -41 -22 -58 -5 -8 8 -19 14 -24 14 -5 0 8 -16 28 -35z"/>
<path d="M1481 1574 c-29 -28 -41 -30 -42 -6 -1 11 -4 9 -9 -8 -12 -37 -11
-44 5 -66 13 -16 14 -16 9 -1 -5 13 -2 16 9 11 8 -3 18 -1 22 5 3 7 0 8 -9 5
-10 -4 -16 -1 -16 7 0 11 -3 11 -10 -1 -9 -13 -10 -13 -10 0 0 8 18 24 40 34
22 11 40 25 40 33 0 16 0 16 -29 -13z"/>
<path d="M1560 1585 c0 -8 -7 -15 -16 -15 -10 0 -14 -6 -11 -14 3 -8 1 -17 -6
-19 -7 -2 0 -4 16 -4 15 0 27 4 27 9 0 5 -4 6 -10 3 -18 -11 -11 8 12 32 18
20 19 23 5 23 -9 0 -17 -7 -17 -15z"/>
<path d="M2162 1584 c21 -6 21 -51 1 -58 -7 -3 -13 -12 -13 -20 0 -10 -6 -13
-16 -9 -8 3 -13 12 -10 20 4 8 1 11 -5 8 -6 -4 -8 -13 -5 -21 3 -8 1 -14 -5
-14 -6 0 -7 -5 -3 -11 5 -8 8 -8 14 0 4 7 11 11 16 10 22 -4 33 2 28 16 -6 14
6 20 29 16 5 -1 5 4 1 11 -5 7 -8 22 -9 33 0 12 -8 20 -20 22 -15 1 -16 1 -3
-3z"/>
<path d="M2071 1553 c-1 -6 -4 -19 -8 -29 -4 -12 -3 -15 5 -10 7 4 12 2 12 -6
1 -8 6 -6 15 6 8 11 15 25 15 30 0 6 -6 2 -12 -9 -12 -19 -12 -19 -19 5 -4 14
-7 20 -8 13z"/>
<path d="M1346 1538 c12 -7 19 -20 17 -28 -4 -12 -3 -13 5 -1 5 7 14 11 20 7
6 -3 13 -2 16 3 3 5 -4 11 -17 14 -12 2 -31 8 -42 11 -18 7 -18 6 1 -6z"/>
<path d="M1961 1533 c-8 -13 -10 -14 -11 -4 0 8 -3 11 -7 8 -3 -4 6 -18 22
-33 15 -14 25 -19 22 -10 -3 8 -3 17 1 19 4 2 1 2 -5 1 -16 -4 -17 8 -1 24 9
9 9 12 0 12 -6 0 -16 -8 -21 -17z"/>
<path d="M1824 1492 c4 -7 4 -22 0 -35 l-8 -22 -6 25 -6 25 -5 -26 c-7 -33 19
-35 34 -2 8 18 7 27 -3 36 -10 9 -11 9 -6 -1z"/>
<path d="M1460 1445 c10 -26 4 -55 -14 -67 -6 -4 -8 -9 -6 -12 3 -2 16 4 30
16 14 11 19 17 13 13 -7 -3 -13 -1 -13 4 0 6 5 11 10 11 6 0 4 13 -5 30 -19
36 -28 40 -15 5z"/>
<path d="M1967 1455 c-9 -9 -19 -16 -22 -15 -3 0 -5 -2 -5 -5 0 -3 0 -9 0 -15
0 -5 12 2 26 17 14 14 23 27 21 30 -3 2 -12 -3 -20 -12z"/>
<path d="M1893 1407 c4 -11 1 -20 -8 -23 -8 -4 -15 -11 -15 -16 0 -6 6 -5 15
2 8 6 18 9 24 6 10 -6 25 23 16 32 -3 3 -5 -1 -5 -9 -1 -10 -5 -8 -17 6 -13
17 -15 17 -10 2z"/>
<path d="M1577 1369 c-3 -13 -12 -19 -24 -17 -21 3 -26 -33 -5 -39 6 -3 12 0
12 7 0 6 -4 8 -10 5 -5 -3 -10 1 -10 9 0 10 6 13 15 10 8 -4 15 -14 15 -24 0
-11 4 -21 9 -24 4 -3 6 6 3 19 -4 21 -1 24 18 20 13 -2 19 -1 16 3 -4 4 -13 7
-19 7 -7 0 -11 10 -9 23 4 28 -4 29 -11 1z"/>
<path d="M1430 1336 c0 -8 -10 -27 -22 -43 -30 -36 -51 -74 -45 -79 2 -3 12
11 21 30 9 20 23 39 31 43 14 8 32 63 21 63 -3 0 -6 -6 -6 -14z"/>
<path d="M1653 1332 c1 -12 6 -21 12 -19 14 5 38 -21 30 -33 -4 -6 -1 -9 7 -8
7 2 12 -5 12 -15 -2 -14 1 -15 13 -6 12 11 12 14 -1 21 -9 5 -16 16 -16 24 0
8 -7 17 -16 21 -15 6 -15 8 2 20 10 7 13 13 8 13 -6 0 -16 -6 -22 -12 -10 -10
-15 -10 -22 2 -7 11 -9 10 -7 -8z"/>
<path d="M1625 1310 c-3 -11 -4 -24 0 -29 3 -5 1 -12 -5 -16 -13 -8 4 -41 27
-49 16 -6 16 -6 0 12 -12 13 -16 31 -13 60 4 45 1 54 -9 22z"/>
<path d="M1454 1290 c-12 -5 -26 -15 -30 -22 -6 -10 -5 -10 7 -2 22 17 58 23
62 10 2 -6 8 -8 12 -4 9 9 -3 28 -18 27 -7 0 -22 -4 -33 -9z"/>
<path d="M908 1088 c-4 -10 -3 -20 1 -23 5 -2 14 -26 20 -51 10 -39 28 -63
104 -140 51 -52 94 -97 95 -101 2 -5 8 -7 12 -6 4 1 16 -8 26 -20 17 -19 17
-20 1 -8 -38 30 -23 4 26 -44 28 -27 45 -43 39 -34 -7 9 -8 20 -4 24 4 5 2 5
-4 2 -6 -4 -19 2 -29 13 -32 36 -7 33 45 -4 27 -20 58 -36 68 -36 9 1 3 7 -16
15 -18 8 -31 19 -28 24 4 5 1 13 -5 17 -8 4 -9 3 -5 -4 39 -63 -192 135 -277
237 -38 46 -47 75 -24 84 8 4 6 6 -4 6 -9 1 -20 15 -25 34 -8 25 -11 28 -16
15z"/>
<path d="M805 976 c-98 -53 -189 -107 -202 -118 -7 -6 -20 -8 -28 -4 -9 3 -13
2 -10 -4 8 -12 -73 -53 -91 -46 -8 3 -13 2 -10 -3 3 -4 -68 -41 -157 -81 -218
-97 -312 -143 -299 -148 5 -1 36 10 68 27 33 16 151 71 264 121 113 51 224
104 247 117 23 14 48 21 54 17 7 -4 9 -3 6 3 -9 14 149 107 164 97 7 -4 9 -3
6 3 -6 10 41 38 50 29 2 -2 8 -35 12 -73 l8 -68 2 62 c0 34 4 70 7 80 5 15 4
15 -5 3 -9 -13 -11 -13 -11 3 0 23 -5 22 -75 -17z"/>
<path d="M735 895 c-27 -24 -52 -42 -56 -39 -4 2 -11 -1 -15 -7 -4 -7 -3 -9 4
-5 6 3 17 0 25 -9 13 -13 16 -13 21 1 3 8 2 12 -4 9 -23 -14 -8 14 17 30 25
17 26 17 19 0 -5 -15 -4 -16 9 -5 9 7 14 19 11 26 -3 7 2 18 11 25 13 11 17
10 29 -6 8 -10 14 -14 14 -9 0 11 -21 34 -29 34 -4 0 -28 -20 -56 -45z"/>
<path d="M1411 850 c-12 -11 -27 -18 -31 -15 -5 3 -11 1 -15 -4 -3 -6 -13 -7
-23 -4 -13 5 -14 3 -5 -7 6 -7 17 -9 24 -4 18 11 60 14 54 4 -3 -4 4 -6 15 -3
11 3 20 9 20 14 0 5 -7 6 -16 2 -14 -5 -15 -3 -5 15 14 27 12 27 -18 2z"/>
<path d="M889 800 c-2 -14 0 -58 5 -97 11 -87 -4 -170 -39 -211 -26 -31 -48
-90 -65 -177 -6 -33 -22 -110 -36 -171 -27 -125 -28 -134 -14 -134 6 0 10 14
10 30 0 28 14 92 71 330 13 55 28 94 44 110 13 14 30 50 39 80 14 48 14 68 3
160 -8 58 -15 94 -18 80z"/>
<path d="M1213 618 c-16 -13 -42 -37 -57 -55 -26 -31 -26 -33 -11 -62 8 -17
15 -39 15 -49 0 -11 7 -25 15 -32 18 -15 19 -27 3 -33 -7 -2 -5 -3 5 -2 12 2
17 -4 17 -18 0 -17 2 -19 9 -8 6 10 5 22 -5 35 -20 28 -18 38 5 24 11 -7 17
-16 14 -22 -4 -5 -1 -6 7 -1 10 6 9 11 -4 21 -10 7 -15 18 -11 24 4 7 1 16 -6
21 -12 8 -12 11 1 20 13 9 13 10 0 6 -8 -2 -16 -10 -16 -18 -1 -8 -2 -20 -3
-27 0 -7 -5 -10 -11 -7 -14 9 -12 48 3 65 10 12 9 12 -5 2 -11 -9 -18 -10 -23
-2 -8 14 4 50 17 50 5 0 7 -7 4 -16 -7 -17 2 -13 51 24 24 18 30 28 24 41 -4
9 -6 22 -4 29 6 17 1 15 -34 -10z m22 -18 c-3 -5 0 -10 7 -11 7 0 3 -5 -9 -11
-13 -6 -23 -15 -23 -20 0 -4 -7 -8 -15 -8 -21 0 -19 8 8 36 22 24 44 33 32 14z"/>
<path d="M1280 619 c-19 -7 -14 -8 20 -4 42 5 43 4 21 -9 l-24 -13 31 1 c25 1
29 4 21 19 -10 18 -29 20 -69 6z"/>
<path d="M930 512 c0 -39 4 -73 10 -77 9 -5 3 134 -6 144 -2 2 -4 -28 -4 -67z"/>
<path d="M1101 492 c-22 -32 -26 -42 -13 -42 10 0 45 60 39 66 -3 3 -14 -8
-26 -24z"/>
<path d="M1051 423 c-8 -14 -11 -15 -11 -3 -1 14 -32 -33 -36 -55 -1 -5 -5
-19 -8 -30 -4 -11 5 3 18 30 14 28 25 43 26 35 1 -10 5 -7 12 8 6 12 15 22 19
22 5 0 1 -16 -8 -35 -9 -19 -19 -32 -23 -30 -4 2 -14 -12 -23 -31 -23 -47 -21
-57 3 -14 27 49 25 25 -5 -48 -14 -34 -25 -67 -25 -74 1 -14 60 118 60 133 0
6 9 29 20 51 11 23 20 45 20 50 0 15 -29 8 -39 -9z"/>
<path d="M937 413 c-3 -5 -8 -31 -11 -59 -4 -36 -1 -56 9 -70 13 -17 14 -16 6
13 -5 17 -8 33 -6 35 1 2 5 22 9 46 5 40 3 51 -7 35z"/>
<path d="M1113 344 c-18 -19 -33 -38 -33 -43 0 -5 -3 -11 -8 -13 -4 -1 -22
-33 -41 -70 -19 -38 -38 -68 -42 -68 -5 0 -5 7 -2 17 4 11 3 14 -5 9 -7 -4
-12 -18 -12 -32 0 -25 -15 -33 -23 -11 -3 6 -6 8 -6 2 0 -5 4 -17 9 -25 9 -13
14 -10 35 15 39 47 76 102 79 117 5 34 68 112 82 100 4 -4 4 -2 0 5 -3 7 1 13
11 15 15 3 15 5 3 9 -9 4 -28 -7 -47 -27z"/>
<path d="M1215 341 c-3 -12 -4 -25 -1 -30 4 -5 7 -28 8 -50 1 -38 3 -41 29
-41 31 0 47 15 25 23 -8 3 -17 1 -19 -6 -2 -7 -8 -9 -12 -5 -5 5 0 18 11 30
l19 23 -22 -18 -21 -19 1 51 c1 55 -7 75 -18 42z"/>
<path d="M896 193 c-10 -43 -16 -91 -14 -108 3 -25 5 -22 11 20 4 28 13 74 19
103 6 28 9 54 6 57 -2 3 -13 -30 -22 -72z"/>
<path d="M1227 166 c-9 -64 -9 -154 1 -159 4 -3 6 16 6 41 -2 69 6 113 20 105
8 -5 8 -3 0 8 -7 8 -14 23 -16 34 -2 11 -7 -2 -11 -29z"/>
</g>
</svg>
